<svg width="149" height="18" xmlns="http://www.w3.org/2000/svg"><path d="M82.32.234l1.758.282-.18.694a35.162 35.162 0 01-.593 1.978h5.062v1.757h-1.195l-.062.47c-.428 3.09-1.11 5.395-2.047 6.913.89 1.125 2.062 2.086 3.515 2.883-.094.14-.234.375-.422.703-.281.422-.492.75-.633.984-1.593-1.125-2.765-2.132-3.515-3.023-.985 1.078-2.25 2.156-3.797 3.234l-1.266-1.476.375-.232c1.595-1.007 2.806-2.055 3.633-3.143-.656-1.078-1.219-2.625-1.687-4.64-.047.046-.094.14-.141.28-.188.329-.352.563-.492.704l-.352-.704-1.054.985-.102-.12c-.53-.617-1.41-1.585-2.64-2.904l1.195-.984.107.126c.23.264.546.597.947.999.47.516.82.89 1.055 1.125l-.07-.21.208-.332C80.95 4.9 81.749 2.783 82.32.234zm-4.78 8.157l1.546.773-.222.475a24.915 24.915 0 01-1.395 2.549l2.46 2.39-1.335 1.266-2.18-2.18-.234.25c-.962 1.002-2.243 2.043-3.844 3.125a15.72 15.72 0 01-.984-1.687c1.546-.797 2.835-1.782 3.867-2.954l-2.32-2.39 1.195-1.125 2.11 2.039.199-.31a16.7 16.7 0 001.136-2.221zM5.61 1.008v1.687l-1.266 4.64.19.255c.858 1.19 1.286 2.441 1.286 3.754.045 1.707-.577 2.66-1.867 2.86l-.172.023c-.328.046-.75.07-1.265.07-.047-.422-.188-.985-.422-1.688a.54.54 0 01-.07-.21h1.054l.128.002c.66-.015.945-.509.857-1.48.046-1.03-.422-2.179-1.407-3.444l1.196-4.782H1.953V17.04H.266V1.008h5.343zm10.968.281v1.758h-1.265v10.969l.006.197c.026 1.742-.82 2.59-2.538 2.545a45.76 45.76 0 01-2.883.07 13.823 13.823 0 01-.14-.914A40.223 40.223 0 009.547 15h2.39l.165.01c1.01.035 1.471-.437 1.382-1.416V3.047H6.383V1.289h10.195zm53.86 5.203v1.899H62l-.299.414c-1.117 1.532-2.47 3.222-4.06 5.07 1.547 0 4.242-.094 8.086-.281a30.801 30.801 0 00-2.32-2.953l1.616-.985.128.146c.704.807 1.74 2.071 3.107 3.792.75.937 1.289 1.57 1.617 1.898l-1.758 1.125-1.055-1.406-.223.007c-1.602.05-4.06.166-7.37.345l-.528.03c-.492.027-.879.04-1.16.04-.89.047-1.664.14-2.32.281l-.914-1.898.228-.132c.534-.328 1.067-.8 1.6-1.415a35.235 35.235 0 003.023-4.078h-5.765V6.492h16.804zm-18 0v1.899H44l-.299.414c-1.117 1.532-2.47 3.222-4.06 5.07 1.547 0 4.242-.094 8.086-.281a30.801 30.801 0 00-2.32-2.953l1.616-.985.128.146c.704.807 1.74 2.071 3.107 3.792.75.937 1.289 1.57 1.617 1.898l-1.758 1.125-1.054-1.406-.224.007c-1.602.05-4.06.166-7.37.345l-.528.03c-.492.027-.879.04-1.16.04-.89.047-1.664.14-2.32.281l-.914-1.898.228-.132c.534-.328 1.067-.8 1.6-1.415a35.235 35.235 0 003.023-4.078h-5.765V6.492h16.804zM33.03 1.008v8.719h-6.117v1.757h6.54v1.547h-6.54v1.758h7.523v1.477H17.564v-1.477h7.453v-1.758h-6.47v-1.547h6.47V9.727H18.97v-8.72h14.06zm100.081 4.74c3.024 0 4.788 2.25 4.428 5.616h-6.336c0 1.26.864 1.908 2.106 1.908.702 0 1.386-.342 1.728-.846h2.448c-.432 1.71-2.088 2.844-4.194 2.844-2.862 0-4.626-1.836-4.626-4.698 0-2.952 1.764-4.824 4.446-4.824zm-21.348.018c1.008 0 1.962.414 2.61 1.062h.09V6h2.376v9h-2.376v-.774h-.09a3.798 3.798 0 01-2.61 1.044c-2.214 0-4.014-1.98-4.014-4.428v-.648c0-2.43 1.818-4.428 4.014-4.428zm32.994 0c2.034 0 3.384 1.368 3.384 3.42V15h-2.394V9.726c0-.954-.684-1.638-1.71-1.638-1.026 0-1.71.72-1.71 1.782V15h-2.394V6h2.394v.756h.09c.306-.45 1.224-.99 2.34-.99zM120.746 6l2.304 5.796L125.426 6h2.556l-3.654 9h-2.484l-3.654-9h2.556zm-14.814-4.266V15h-2.574V6.558l-3.078 6.138h-1.404l-3.078-6.138V15h-2.574V1.752l2.574-.018 3.78 7.182 3.78-7.182h2.574zm6.354 6.426c-1.17 0-2.088.9-2.088 2.07v.594c0 1.152.918 2.07 2.088 2.07a2.07 2.07 0 002.07-2.07v-.594c0-1.188-.954-2.07-2.07-2.07zM11.937 5.016v7.734H6.734V5.016h5.204zm-1.546 1.617H8.28v4.5h2.11v-4.5zm75.093-1.688h-2.812l-.211.352.073.466c.33 1.99.82 3.615 1.474 4.878.703-1.313 1.195-3.211 1.476-5.696zm47.628 2.801c-1.098 0-1.89.684-1.89 1.818h3.78c0-1.134-.81-1.818-1.89-1.818zm-58.878-2.8l1.336.913-.234.311c-1.156 1.524-2.086 2.616-2.79 3.275L71.423 8.32l.298-.305c.801-.838 1.64-1.861 2.514-3.07zM25.016 6.14h-4.149v2.04h4.149V6.14zm6.117 0h-4.219v2.04h4.219V6.14zm-6.117-3.586h-4.149v2.039h4.149v-2.04zm6.117 0h-4.219v2.039h4.219v-2.04zM76.555.165l.027.077c.052.143.137.352.254.625.281.797.492 1.406.633 1.828h2.812v1.688h-8.437V2.695H75.5l-.043-.109a50.022 50.022 0 01-.379-1.016L74.656.516l1.899-.352zM68.82 1.288v1.899H55.11V1.288h13.71zm-18 0v1.899H37.11V1.288h13.71z" fill="#262626"/></svg>